<?xml version="1.0" encoding="UTF-8" standalone="no"?>
<!DOCTYPE svg PUBLIC "-//W3C//DTD SVG 1.1//EN" "http://www.w3.org/Graphics/SVG/1.1/DTD/svg11.dtd">
<svg width="100%" height="100%" viewBox="0 0 54 42" version="1.1" xmlns="http://www.w3.org/2000/svg" xmlns:xlink="http://www.w3.org/1999/xlink" xml:space="preserve" xmlns:serif="http://www.serif.com/" style="fill-rule:evenodd;clip-rule:evenodd;stroke-linejoin:round;stroke-miterlimit:2;">
    <g id="Page-1">
        <g id="Exercise">
            <g id="artwork">
                <g id="Stacked-Group">
                    <g id="Wheater-Day" serif:id="Wheater/Day">
                        <g id="Storm">
                            <path id="Oval-1" d="M9.257,31.182L9.257,31.157C3.933,30.811 0,26.912 0,22.48C0,17.111 4.317,13.053 10.029,13.053C10.374,13.053 10.717,13.073 11.055,13.112C12.435,5.549 19.261,0 27.771,0C34.801,0 40.966,4.481 43.139,10.878C43.159,10.877 43.18,10.877 43.2,10.877C49.165,10.877 54,15.423 54,21.03C54,24.5 52.147,27.564 49.32,29.395C49.129,29.596 48.897,29.782 48.63,29.953L48.63,29.955L48.627,29.955C47.704,30.544 46.355,30.948 44.769,31.107L44.769,31.182L9.257,31.182Z" style="fill:white;"/>
                        </g>
                    </g>
                </g>
            </g>
        </g>
    </g>
</svg>
