<?xml version="1.0" encoding="UTF-8" standalone="no"?>
<!DOCTYPE svg PUBLIC "-//W3C//DTD SVG 1.1//EN" "http://www.w3.org/Graphics/SVG/1.1/DTD/svg11.dtd">
<svg width="100%" height="100%" viewBox="0 0 54 42" version="1.1" xmlns="http://www.w3.org/2000/svg" xmlns:xlink="http://www.w3.org/1999/xlink" xml:space="preserve" xmlns:serif="http://www.serif.com/" style="fill-rule:evenodd;clip-rule:evenodd;stroke-linejoin:round;stroke-miterlimit:2;">
    <g id="Page-1">
        <g id="Exercise">
            <g id="artwork">
                <g id="Stacked-Group">
                    <g id="Wheater-Day" serif:id="Wheater/Day">
                        <g id="Storm">
                            <path id="Oval-1" d="M9.257,31.182L9.257,31.157C3.933,30.811 0,26.912 0,22.48C0,17.111 4.317,13.053 10.029,13.053C10.374,13.053 10.717,13.073 11.055,13.112C12.435,5.549 19.261,0 27.771,0C34.801,0 40.966,4.481 43.139,10.878C43.159,10.877 43.18,10.877 43.2,10.877C49.165,10.877 54,15.423 54,21.03C54,24.5 52.147,27.564 49.32,29.395C49.129,29.596 48.897,29.782 48.63,29.953L48.63,29.955L48.627,29.955C47.704,30.544 46.355,30.948 44.769,31.107L44.769,31.182L9.257,31.182Z" style="fill:white;"/>
                            <path id="Line" d="M7.258,38.903C6.972,39.175 6.972,39.615 7.258,39.887C7.545,40.159 8.009,40.159 8.296,39.887L12.698,35.711C12.985,35.439 12.985,34.998 12.698,34.727C12.412,34.455 11.947,34.455 11.661,34.727L7.258,38.903Z" style="fill:white;fill-rule:nonzero;"/>
                            <path id="Line-2" d="M14.302,38.903C14.015,39.175 14.015,39.615 14.302,39.887C14.588,40.159 15.053,40.159 15.339,39.887L19.742,35.711C20.028,35.439 20.028,34.998 19.742,34.727C19.455,34.455 18.991,34.455 18.704,34.727L14.302,38.903Z" style="fill:white;fill-rule:nonzero;"/>
                            <path id="Line-3" d="M20.171,38.903C19.885,39.175 19.885,39.615 20.171,39.887C20.458,40.159 20.922,40.159 21.209,39.887L25.611,35.711C25.898,35.439 25.898,34.998 25.611,34.727C25.325,34.455 24.86,34.455 24.574,34.727L20.171,38.903Z" style="fill:white;fill-rule:nonzero;"/>
                            <g id="Line1" serif:id="Line" transform="matrix(1,0,0,1,19.9565,0)">
                                <path d="M7.258,38.903C6.972,39.175 6.972,39.615 7.258,39.887C7.545,40.159 8.009,40.159 8.296,39.887L12.698,35.711C12.985,35.439 12.985,34.998 12.698,34.727C12.412,34.455 11.947,34.455 11.661,34.727L7.258,38.903Z" style="fill:white;fill-rule:nonzero;"/>
                            </g>
                            <g id="Line-21" serif:id="Line-2" transform="matrix(1,0,0,1,19.9565,0)">
                                <path d="M14.302,38.903C14.015,39.175 14.015,39.615 14.302,39.887C14.588,40.159 15.053,40.159 15.339,39.887L19.742,35.711C20.028,35.439 20.028,34.998 19.742,34.727C19.455,34.455 18.991,34.455 18.704,34.727L14.302,38.903Z" style="fill:white;fill-rule:nonzero;"/>
                            </g>
                            <g id="Line-31" serif:id="Line-3" transform="matrix(1,0,0,1,19.9565,0)">
                                <path d="M20.171,38.903C19.885,39.175 19.885,39.615 20.171,39.887C20.458,40.159 20.922,40.159 21.209,39.887L25.611,35.711C25.898,35.439 25.898,34.998 25.611,34.727C25.325,34.455 24.86,34.455 24.574,34.727L20.171,38.903Z" style="fill:white;fill-rule:nonzero;"/>
                            </g>
                        </g>
                    </g>
                </g>
            </g>
        </g>
    </g>
</svg>
